<?xml version="1.0" standalone="no"?>
<!DOCTYPE svg PUBLIC "-//W3C//DTD SVG 20010904//EN"
 "http://www.w3.org/TR/2001/REC-SVG-20010904/DTD/svg10.dtd">
<svg version="1.0" xmlns="http://www.w3.org/2000/svg"
 width="700.000000pt" height="700.000000pt" viewBox="0 0 700.000000 700.000000"
 preserveAspectRatio="xMidYMid meet">
<metadata>
Created by potrace 1.14, written by Peter Selinger 2001-2017
</metadata>
<g transform="translate(0.000000,700.000000) scale(0.100000,-0.100000)"
fill="#000000" stroke="none">
<path d="M6339 6566 c-2 -2 -33 -6 -69 -10 -272 -26 -503 -232 -567 -506 -13
-57 -15 -364 -15 -2551 0 -2311 1 -2490 17 -2554 58 -230 216 -402 435 -473
197 -64 397 -36 570 80 122 81 213 204 262 352 l23 71 0 2525 0 2525 -24 70
c-79 234 -247 392 -476 448 -33 8 -78 15 -99 16 -22 1 -42 4 -46 6 -4 3 -9 3
-11 1z"/>
<path d="M5180 5558 c-36 -16 -103 -45 -150 -64 -47 -19 -94 -39 -105 -44 -88
-40 -499 -178 -710 -239 -244 -70 -575 -147 -815 -190 -63 -12 -126 -23 -140
-26 -27 -6 -120 -21 -185 -30 -22 -4 -51 -8 -65 -10 -108 -17 -163 -25 -215
-30 -33 -3 -73 -7 -90 -10 -16 -2 -50 -7 -75 -9 -25 -3 -70 -8 -100 -11 -30
-3 -73 -7 -95 -10 -22 -2 -85 -7 -140 -11 -55 -4 -102 -8 -103 -10 -3 -2 -5
-2473 -3 -2680 1 -48 2 -50 29 -51 38 0 240 -14 266 -18 11 -2 61 -6 109 -10
48 -3 96 -8 105 -10 9 -1 52 -6 95 -10 43 -3 86 -8 95 -9 9 -2 44 -7 77 -11
32 -4 68 -9 80 -11 11 -2 38 -6 60 -9 22 -3 49 -7 61 -9 12 -2 45 -7 75 -11
30 -4 56 -8 59 -10 3 -2 25 -6 50 -9 45 -6 368 -72 490 -99 55 -13 105 -25
280 -72 99 -26 446 -134 495 -155 11 -4 47 -18 80 -30 33 -12 69 -26 80 -30
11 -5 63 -25 115 -46 52 -20 153 -64 224 -96 71 -32 131 -56 133 -54 2 1 2
939 1 2083 l-3 2081 -65 -30z"/>
<path d="M1527 4833 c-1 -1 -151 -4 -332 -7 -402 -8 -458 -12 -573 -48 -202
-62 -381 -203 -499 -393 -32 -51 -87 -186 -98 -240 -2 -11 -8 -42 -14 -70 -11
-57 -9 -1132 2 -1180 91 -374 355 -630 722 -700 37 -7 169 -12 505 -20 140 -3
312 -8 383 -11 l127 -5 0 1341 0 1340 -111 -2 c-61 -2 -111 -4 -112 -5z"/>
<path d="M1200 1735 c0 -3 13 -29 29 -58 15 -29 54 -101 86 -162 32 -60 75
-141 95 -180 73 -137 118 -221 170 -320 29 -55 69 -131 90 -170 20 -38 59
-112 86 -164 59 -112 115 -178 192 -224 89 -53 135 -62 332 -61 170 0 223 4
265 19 137 52 227 140 277 271 28 76 30 230 3 334 -2 8 -7 40 -10 70 -4 30 -8
57 -10 60 -1 3 -6 32 -9 65 -4 33 -9 67 -11 75 -2 8 -14 80 -25 160 -25 174
-28 191 -33 197 -7 6 -38 11 -123 18 -43 4 -92 8 -109 10 -43 4 -190 15 -265
20 -140 10 -253 16 -565 29 -259 12 -465 17 -465 11z"/>
</g>
</svg>
